<?xml version="1.0" encoding="UTF-8"?>
<svg version="1.1" viewBox="0 0 2048 682" width="1280" height="1280" xmlns="http://www.w3.org/2000/svg">
<path transform="translate(1687,268)" d="m0 0h266v194h-266zm53 53v88h159v-88z" fill="#06070A"/>
<path transform="translate(267,50)" d="m0 0h3l5 8 7 14 3 3 6 12 4 6 2 6h2l7 14 4 6 3 5 7 13 5 8v3h2l3 5 7 14 12 12 10 5h142l5 2v3h-2l-2 5-3 6-3 3-6 12-4 6-3 5-2 5-2 4h-2l-2 6-4 6-4 8-4 6-6 11-3 4v3l2 1-1 3-4-1-4 6-10 10-9 4-7 1-1 1h-123l-1-1-7-1-11-6-7-8-3-3-4-8-4-6-7-14-7-11-7-13-4-6-3-5-4-6-5-10-5-8-2-5-5-8-4-7-1-9-1-4 1-1 1-9 5-12 3-3 4-8 2-2 2-6 7-10 6-11 4-6 3-8 3-3 4-8 3-3 6-12 4-6z" fill="#08090C"/>
<path transform="translate(177,206)" d="m0 0 4 3 6 12 4 6 1 5h2l3 5 7 14 4 6 5 9 4 6 4 8 6 10 5 8 6 12 1 9 1 5-1 1-1 12-2 4h-2l-1 5-4 6-4 8-3 3-11 22h-2l-2 6-6 10-4 6-4 10-4 5-1 3h-2l-1 5-3 3-4 8-4 6-4 8-4 6-5 9-5 10h-2l-1 5-4 6-3 5-2 2-2 6-6 8-9 18h-2l-3 9-3 3-6 12-4 6-9 15-2 5-4 6-4 8-4 3-5-8-3-5-7-13-1-3h-2v-4h-2l-4-9-4-6-12-20-1-5h-2l-5-10-4-7-4-5-4-10-2-6v-9l1-1 1-8h2v-6l8-12 3-5 7-14h2l1-5h2v-4h2l1-5 3-3 4-8 4-6 4-8 3-4 6-11 8-15 4-6 5-9 4-6 7-14h2l1-5 10-16 7-13 8-13 7-13 4-6 4-8 3-4 4-7 2-5 4-6 3-5 5-9 2-5 3-2z" fill="#090A0D"/>
<path transform="translate(630,50)" d="m0 0 4 1 6 12 3 3v4h2l5 10 5 9 3 3 6 12 4 6v4h2l6 11 3 4 2 5 4 6 6 12 2 7v13l-1 1-1 7-2 5h-2l-1 5-4 6-5 9-4 6-9 18h-2l-1 5-5 7-3 5-7 13-4 6-6 11-5 9-4 6-4 8-4 6-3 5-2 5-4 6-1 3h-2l-2 6-5 9-3 3-6 12-4 6-5 10-15 25-3 7-7 10-4 7-2 5-4 6-3 5-4 4-4-4-6-12-3-3-6-12v-2h-2v-4h-2l-7-14-4-4-8-16-4-6-5-10-4-6-6-12v-22h2v-6h2l2-6 6-10 4-6 4-8 3-5 2-5h2l2-6 4-6 6-12 6-8 7-14 4-6 4-8 4-6 4-8 3-3 9-18h2l1-5 4-6 5-9 4-6 6-10 3-8h2l10-20 4-6 9-15 2-2 3-8 2-4h2l2-6 5-9 3-3z" fill="#090A0D"/>
<path transform="translate(293,342)" d="m0 0h129v2l9 1 12 8 4 4 3 5 5 9 5 8 3 6 3 3 3 8 4 6 7 13 3 3 4 8 2 2 3 7 10 17 3 5 5 9 1 7 1 1v12l-1 1-1 7-6 11-9 15-7 13-4 6-4 8-5 7-1 4h-2v4h-2l-2 6-8 12-4 8-5 8h-3l-3-5v-2h-2v-4h-2l-4-9-2-2v-3h-2l-3-8-4-4-6-10v-4h-2l-4-8-3-5-6-11-4-6-3-5-7-13-3-3-3-7-7-12-5-4-4-4-3-2-12-3-1-1-139-1v-5l4-6 7-13 4-6 3-5 1-4h2l2-6 2-4h2l2-6 5-9 3-3 4-8 2-7 4-4 1-3h2l1-5 6-8 3-5 5-3 6-4 6-2h2z" fill="#090A0D"/>
<path transform="translate(793,268)" d="m0 0h273l-6 7-133 133 140 1v53h-273l6-7 133-133-140-1z" fill="#050609"/>
<path transform="translate(1086,268)" d="m0 0h80l69 69 7-6 63-63h80l-6 7-116 116-1 71h-53l-1-71-122-122z" fill="#050609"/>
<path transform="translate(1403,268)" d="m0 0h265l-6 7-46 46h-160v141h-53z" fill="#050609"/>
<path transform="translate(1518,338)" d="m0 0h151v124h-53l-1-70h-148v-3z" fill="#07080B"/>
<path transform="translate(372,184)" d="m0 0h129l-1 3h-127z" fill="#FEFEFE"/>
<path transform="translate(489,587)" d="m0 0h13l3 3 2-3h3l2 5v5l-11 1h-3l-1-8-6 1z" fill="#E9EAEA"/>
<path transform="translate(285,299)" d="m0 0 5 1 10 1 2 3h-5l-1-1-7-1z" fill="#FEFEFE"/>
<path transform="translate(211,459)" d="m0 0h2v2h-2z" fill="#FEFEFE"/>
<path transform="translate(484,590)" d="m0 0 2 1z" fill="#FEFEFE"/>
<path transform="translate(114,556)" d="m0 0" fill="#FEFEFE"/>
<path transform="translate(390,499)" d="m0 0" fill="#FEFEFE"/>
<path transform="translate(162,472)" d="m0 0" fill="#FEFEFE"/>
<path transform="translate(364,468)" d="m0 0 2 1z" fill="#FEFEFE"/>
<path transform="translate(219,438)" d="m0 0" fill="#FEFEFE"/>
<path transform="translate(46,424)" d="m0 0 2 1z" fill="#FEFEFE"/>
<path transform="translate(232,417)" d="m0 0" fill="#FEFEFE"/>
<path transform="translate(583,378)" d="m0 0 2 1z" fill="#FEFEFE"/>
<path transform="translate(499,377)" d="m0 0" fill="#FEFEFE"/>
<path transform="translate(583,371)" d="m0 0 2 1z" fill="#FEFEFE"/>
<path transform="translate(451,356)" d="m0 0" fill="#FEFEFE"/>
<path transform="translate(482,348)" d="m0 0 2 1z" fill="#FEFEFE"/>
<path transform="translate(86,348)" d="m0 0 2 1z" fill="#FEFEFE"/>
<path transform="translate(276,297)" d="m0 0" fill="#FEFEFE"/>
<path transform="translate(261,281)" d="m0 0 2 1z" fill="#FEFEFE"/>
<path transform="translate(147,249)" d="m0 0 2 1z" fill="#FEFEFE"/>
<path transform="translate(202,238)" d="m0 0" fill="#FEFEFE"/>
<path transform="translate(152,238)" d="m0 0" fill="#FEFEFE"/>
<path transform="translate(166,215)" d="m0 0 2 1z" fill="#FEFEFE"/>
<path transform="translate(345,171)" d="m0 0 2 1z" fill="#FEFEFE"/>
<path transform="translate(347,167)" d="m0 0 2 1z" fill="#FEFEFE"/>
<path transform="translate(288,76)" d="m0 0 2 1z" fill="#FEFEFE"/>
<path transform="translate(253,61)" d="m0 0" fill="#FEFEFE"/>
<path transform="translate(623,53)" d="m0 0 2 1z" fill="#FEFEFE"/>
<path transform="translate(623,47)" d="m0 0 2 1z" fill="#FEFEFE"/>
<path transform="translate(487,540)" d="m0 0" fill="#FEFEFE"/>
<path transform="translate(402,523)" d="m0 0" fill="#FEFEFE"/>
<path transform="translate(362,477)" d="m0 0" fill="#FEFEFE"/>
<path transform="translate(198,411)" d="m0 0" fill="#FEFEFE"/>
<path transform="translate(215,384)" d="m0 0" fill="#FEFEFE"/>
<path transform="translate(430,340)" d="m0 0" fill="#FEFEFE"/>
<path transform="translate(99,333)" d="m0 0" fill="#FEFEFE"/>
<path transform="translate(636,291)" d="m0 0" fill="#FEFEFE"/>
<path transform="translate(634,287)" d="m0 0" fill="#FEFEFE"/>
<path transform="translate(263,283)" d="m0 0" fill="#FEFEFE"/>
<path transform="translate(638,276)" d="m0 0" fill="#FEFEFE"/>
<path transform="translate(508,247)" d="m0 0" fill="#FEFEFE"/>
<path transform="translate(188,215)" d="m0 0" fill="#FEFEFE"/>
<path transform="translate(506,209)" d="m0 0" fill="#FEFEFE"/>
<path transform="translate(350,175)" d="m0 0" fill="#FEFEFE"/>
<path transform="translate(352,171)" d="m0 0" fill="#FEFEFE"/>
<path transform="translate(356,167)" d="m0 0" fill="#FEFEFE"/>
<path transform="translate(339,165)" d="m0 0" fill="#FEFEFE"/>
<path transform="translate(573,131)" d="m0 0" fill="#FEFEFE"/>
<path transform="translate(320,131)" d="m0 0" fill="#FEFEFE"/>
<path transform="translate(322,118)" d="m0 0" fill="#FEFEFE"/>
<path transform="translate(251,70)" d="m0 0" fill="#FEFEFE"/>
</svg>
