<?xml version="1.0" encoding="UTF-8"?>
<svg version="1.1" viewBox="0 0 2048 1536" width="1280" height="1280" xmlns="http://www.w3.org/2000/svg">
<path transform="translate(902,404)" d="m0 0h2l5 12 5 6v4l2 1 6 11 8 14 3 5 1 3 2 1 5 10 1 3 3 1v3l5 8 4 7 2 2 2 6 7 10 4 7 2 5 4 4 5 10 2 5 4 5v4h3l1 5 5 8 3 3v2h3v3l3 1 2 4 4 2 5 2v2h5l2 2h176l18 1 2 2-1 4-4 3-2 5-3 6-4 4-2 5-1 4-3 2-1 5-3 1v2h-2l1 4-3 2v4h-3l-2 4-1 4v3h-2l-1 3h-2v3l-1 3-5 4v4l-3 2 1 3-4 2-1 2 2 1-5 5h-2l1 4-3 2 1 2-4 5v3l-6 5 2 2-4 2-4 8-2 5h-2v2l-3 2 1 4-4-1-6 7-12 6-1 1h-11v3l-163 1v-3h-11l-1-3-5-1-4-2v-2l-4-2-7-6-4-5-2-2-2-5-4-6-3-4 1-3-4-1 2-1-4-6v-3h-2l-2-5-4-4-1-4-2-2-3-7-3-1v-4l-2-1v-5l-3-1-3-7-3-3v-4l-3-1-1-4-1-3h-3l-1-5-2-1-1-4-3-6-4-4v-5h-3v-5h-2l-1-6h-2l-3-3-2-5-3-6-1-1v-5h-3v-12l-3-3 2-4 1-4v-9l3-2-1-5 3-2 2-6 4-4 1-4 2-1v-4l5-4v-7l5-3 1-5 5-5 1-4 2-1 4-10 5-6v-2h2l1-6 2-1 2-5 4-5v-3l3-3-1-2 4-2 8-15 3-5 5-8v-4l3-1 2-5z" fill="#020202"/>
<path transform="translate(782,613)" d="m0 0h2l5 5v4l2 2 4 10 2 1 1 4 1 3h2v2l2 1v4h3l1 5 4 4 3 8 2 2 2 5 3 6 4 3 1 5 4 7 3 3 1 4 2 1 1 4 5 8v2l3 1 1 4 4 7v2l3 1 2 4 2 5 3 6 1 1v5l4 1-2 1 1 6 1 5 2 4-3 4v13l-4 2v2h2v2l-4 2 1 4h-4l-2 6v2l-3 2v4l-3 1 1 3-1 2h-2l-1 2-2-1v6l-3 2-1 4-2 3-2 4-6 9v3l-5 5-1 4-3 3v3h-2v5l-6 5 1 3-3 2v5h-3v3l-1 5-2 2h-3l-2 4v4l-3 1-1 5-4 4h-2l1 4-3 2v4l-5 4-1 4-2 4-3 5v2l-5 5-8 16-3 3-5 10-2 6-4 3-2 5-3 6-4 4v6l-5 3v3l-1 3-5 4-2 5-1 4-3 2v4l-4 4h-2l1 4-3 2-1 4-2 1-1 5h-2l-2 4-4 7 1 2-3 2-3 7-5 7-4 7-6 11-3 6-4 5-7 14-5 6h-2l-2-6-3-5-2-5-4-4-2-5-3-6-4-7-2-1v-5l-3-1-2-5-3-6-4-5v-2l-2-1v-5l-4-2-9-18-4-3v-5h-2l-2-5-3-6-1-3-3-1-2-5-1-5h-2l-4-5v-3l-3-3v-5l-2-2v-7h-2l-1-2v-11l3-2-1-9 3-1v-7l3-2 1-5 5-5v-3l3-3-1-2 4-1 2-4 3-7 4-8 5-6 1-3h2l-1-5 3-1v-4l5-5 3-5v-4l5-4 8-16 9-15 1-4 4-4 5-10 2-6 5-5 7-14 4-5 1-4 3-3-1-2 3-1 5-9 1-4 2-1 1-5 4-4 6-11 1-4 4-4 6-11 2-5h2l2-5 6-11 2-2 2-5 4-6v-4h3v-3l4-4-2-1 4-1-1-5 3-1v-4l5-4 4-9 2-1 1-6 4-4 2-5h2v-5l5-5v-3l3-2v-4h3l-1-7 2-1v2l4-4 1-4zm4 5m18 32m22 198m-23 41m-1 1 1 2z" fill="#030303"/>
<path transform="translate(1381,407)" d="m0 0 4 1 5 9 2 4 12 22 5 7 4 8 4 5 8 16 1 3h2l8 16 6 10 6 11 5 8 9 17 1 7 2 1v17l-2 1v9l-3 2-1 5-2 1-1 5-4 4-8 16-6 9-5 10-3 4-6 11-6 10-1 3-2 1-1 4-4 5-3 5-1 4-3 1 1 4-5 4-1 5-2 1v4l-3 1-8 15-1 3h-2l-2 5-8 16-4 4-1 4-3 1 1 5-3 1 1 6h-3l-3 2-1 4-2 2-1 4h-2l-2 5-8 15-3 3-2 5-4 7-2 5-4 5-3 4-1 4-3 6-4 5-3 6v2l-4 4-3 5-1 5-3 3v3h-3l-2 4-1 3 1 4h-3v2l-3 1v5h-3l-2 4-4 10-2 1-2 6-4 4v3l-2 1-1 4h-2l-2 4-3 8h-2l-1-5-1-3-3-1v-4l-3-3-2-4-2-5-1-3h-3l-1-5-2-2 1-3-4-2-1-4-1-3h-3v-6h-3v-4l-2-1v-3l-4-1 1-5-4-1 2-1-5-5-2-1v-4l-3-3v-4l-2-1-1-4-2-1v-5h-2v-2l-4-2-1-4-2-1v-4l-2-1-1-5-5-4v-5h-2l-2-5-3-6-1-4v-2h-3v-30l3 1-1-8 5-4 6-12 1-4 5-5 1-4h2v-5l3-2v-4l3-1 4-8 2-5 4-4 6-11 2-5 3-6 1-4h3v-3l2-1 1-5h2l8-14 2-5 4-5 5-10 2-5 4-4 2-5 4-6v-4l5-5 5-9 4-6 5-9 2-5h2l2-5 5-9 1-5 5-5 5-9 6-10 5-10 9-15 4-10 4-4 3-5 2-5 4-5 3-7 5-6 7-15h2l2-5 7-13 6-10z" fill="#030303"/>
<path transform="translate(936,794)" d="m0 0h171v2l10 1 1 2h5l4 5v2l5-1 3 4v2l4 2 1 4 5 5v5h3l1 5 4 4 2 5 5 10 4 4 2 5 2 2v3l5 8v2l3 1v3l2 2 3 5 2 5 1 3h3l1 6 5 7 2 1 1 5 5 9 5 5 1 5 2 1 1 5 5 8 3 2v4l2 2 2 4h1v9l3 3v13l-3 3v9l-2 1-1 5-2 1-2 5-4 5-2 4-1 4-3 3v3l-5 4-1 4-2 3v2l-3 3-1 4-5 6-4 8-1 5h-3l-2 4-4 7v3l-3 3v3l-4 3-2 5-3 6-4 5-2 4h-2v2h2v2l-4 2v4h-3l-2 5-3 6v3l-4-2-3-6-1-3h-3l-1-5-2-1v-4l-2-1-2-5-4-4-2-5-1-5h-2l-4-8-3-3v-3l-2-1v-2l-3-1-1-4-6-12-1-5h-2l-4-5v-4h-2l-2-5-3-6-4-5v-3h-2l-2-5-5-6v-3l-2-1-1-4-4-7v-2l-4-1 1-3-4-4h2l-4-4-1-4-2-3-3-1v-4l-6-5h-2l-1-4-4-4h-3v-2l-9-1-1-3h-8l-1-2h-188v-2l3-2 3-5v-4l3-1 6-10v-3l2-1v-4l3-1 3-6 3-5v-2l2-1 1-5 5-5v-3l3-2 1-4 4-4 4-10 2-1v-4l5-5 3-5v-4h3v-5-3l5-4 1-2h2v-5l3-2v-4l6-5 1-4h2l2-6v-2l8-4 3-3 5-2 4-4h6z" fill="#020202"/>
<path transform="translate(1183,585)" d="m0 0h15l18 1 2 2-1 4-4 2-1-6-2 2h-168l-1-3h-3l-1 3-5-1v-2h-10v-1z" fill="#BBB6B7"/>
<path transform="translate(1221,1116)" d="m0 0h2l1 8 3 7-16 1-3 2-2-3-1-10h-5l1 10h-4v-7l-3-5v-2h18l1 5h3l3-5z" fill="#BFBBBC"/>
<path transform="translate(836,937)" d="m0 0 1 3-3 6h-2v3h186l1 3 2 1h-5l-1-2h-188v-2l3-2 3-5v-4z" fill="#BBB6B7"/>
<path transform="translate(942,740)" d="m0 0h4v3h156l1-3 1 4-163 1z" fill="#BBB6B7"/>
<path transform="translate(1461,544)" d="m0 0h1l1 7 2 1v17l-2 1v9l-3 2-1 5-3 1 2-7 2-3 1-8 2-2v-12l-2-3z" fill="#BBB6B7"/>
<path transform="translate(919,803)" d="m0 0 2 1-13 13-3 5-2-1 1-3h2l2-6v-2l8-4z" fill="#8C8889"/>
<path transform="translate(892,838)" d="m0 0 1 4-2 2-4 10-3 1-1-3h3v-5-3l5-4z" fill="#BBB6B7"/>
<path transform="translate(1130,805)" d="m0 0h2l3 4v2l4 2-1 3-3-1-7-8z" fill="#BBB6B7"/>
<path transform="translate(1414,461)" d="m0 0 3 2 7 14-1 2-4-5-6-12z" fill="#BBB6B7"/>
<path transform="translate(588,951)" d="m0 0 2 1v2h-3v8l-3 1v5h-1l-1-7 3-1v-7z" fill="#BBB6B7"/>
<path transform="translate(1295,557)" d="m0 0h1v5l-4 4-3 5-2 1 3-9 3-1z" fill="#BBB6B7"/>
<path transform="translate(850,913)" d="m0 0h1v5l-3 3h-2l-1 5-2 1-1-3 2-1v-4l3-1z" fill="#BBB6B7"/>
<path transform="translate(996,566)" d="m0 0 2 1v2h3v3l3 1 2 4 3 1-2 1-8-7-3-3z" fill="#BBB6B7"/>
<path transform="translate(1425,480)" d="m0 0 1 2h2l6 12-1 3-5-8-3-6z" fill="#BBB6B7"/>
<path transform="translate(1240,652)" d="m0 0 1 3-5 8-4 3-1-3h3v-3l2-1 1-5h2z" fill="#BBB6B7"/>
<path transform="translate(1428,635)" d="m0 0 1 3-9 15-1-3 5-8 2-5z" fill="#BDB8B9"/>
<path transform="translate(1022,586)" d="m0 0h19l-3 1-1 3-5-1v-2h-10z" fill="#C1BCBD"/>
<path transform="translate(1221,1116)" d="m0 0h2v7h-4v-6z" fill="#D5D2D2"/>
<path transform="translate(1120,1092)" d="m0 0 4 2 3 7-1 3-3-3-2-5z" fill="#C0BBBC"/>
<path transform="translate(586,995)" d="m0 0 3 4 3 6-1 3-3-3v-3l-3-3z" fill="#BBB6B7"/>
<path transform="translate(1254,908)" d="m0 0 1 2 3 1 2 5-1 4v-2l-3-1v-4l-3-3z" fill="#BBB6B7"/>
<path transform="translate(744,681)" d="m0 0 2 2-2 2-2 5-2 1v-2l-2-1 4-1-1-5z" fill="#BBB6B7"/>
<path transform="translate(1147,711)" d="m0 0 5 2-3 3h-3z" fill="#979394"/>
<path transform="translate(894,712)" d="m0 0 5 4-1 2-4-3z" fill="#737070"/>
<path transform="translate(797,626)" d="m0 0 2 2-4 1z" fill="#858282"/>
<path transform="translate(1309,521)" d="m0 0 1 4h-2z" fill="#BBB6B7"/>
<path transform="translate(1189,1121)" d="m0 0 2 1v2l-3-1z" fill="#9B9798"/>
<path transform="translate(1191,1054)" d="m0 0 3 1v2l-3-1z" fill="#9B9798"/>
<path transform="translate(838,921)" d="m0 0h2v3h-2z" fill="#BBB6B7"/>
<path transform="translate(1208,840)" d="m0 0 3 1-2 2z" fill="#BBB6B7"/>
<path transform="translate(1186,801)" d="m0 0h2v3h-2z" fill="#9B9798"/>
<path transform="translate(914,734)" d="m0 0 2 2-3 1z" fill="#BBB6B7"/>
<path transform="translate(743,671)" d="m0 0h3v2h-3z" fill="#9B9798"/>
<path transform="translate(769,626)" d="m0 0 2 1v2l-3-1z" fill="#BBB6B7"/>
<path transform="translate(1019,562)" d="m0 0h2v3h-2z" fill="#7C797A"/>
<path transform="translate(880,434)" d="m0 0h2v3h-2z" fill="#7C797A"/>
<path transform="translate(1080,1032)" d="m0 0h2l-1 3z" fill="#BBB6B7"/>
<path transform="translate(1063 1e3)" d="m0 0h3v2l-3-1z" fill="#BBB6B7"/>
<path transform="translate(763,965)" d="m0 0 2 1v2h-2z" fill="#BBB6B7"/>
<path transform="translate(832,849)" d="m0 0 3 1-3 1z" fill="#BBB6B7"/>
<path transform="translate(1320,840)" d="m0 0 1 3h-2z" fill="#BBB6B7"/>
<path transform="translate(1319,832)" d="m0 0 3 1-3 1z" fill="#BBB6B7"/>
<path transform="translate(663,801)" d="m0 0 2 1v2h-2z" fill="#959192"/>
<path transform="translate(1117,790)" d="m0 0 1 3h-2z" fill="#959192"/>
<path transform="translate(679,782)" d="m0 0 3 1-3 1z" fill="#959192"/>
<path transform="translate(1391,707)" d="m0 0h3v2l-3-1z" fill="#959192"/>
<path transform="translate(1216,618)" d="m0 0 3 1-3 1z" fill="#959192"/>
<path transform="translate(1011,573)" d="m0 0 2 2h-3z" fill="#BBB6B7"/>
<path transform="translate(997,559)" d="m0 0 2 2h-3z" fill="#BBB6B7"/>
<path transform="translate(972,515)" d="m0 0 2 2h-3z" fill="#959192"/>
<path transform="translate(975,498)" d="m0 0 2 2h-3z" fill="#959192"/>
<path transform="translate(930,443)" d="m0 0h2v2l-3-1z" fill="#959192"/>
<path transform="translate(882,423)" d="m0 0 3 1-3 1z" fill="#959192"/>
<path transform="translate(1372,404)" d="m0 0 3 1-3 1z" fill="#959192"/>
<path transform="translate(699,1077)" d="m0 0h2v2h-2z" fill="#8C8889"/>
<path transform="translate(1178,1071)" d="m0 0v3z" fill="#BBB6B7"/>
<path transform="translate(1030,960)" d="m0 0h2v2h-2z" fill="#8C8889"/>
<path transform="translate(610,902)" d="m0 0h2v2h-2z" fill="#8C8889"/>
<path transform="translate(855,893)" d="m0 0 2 2-2 1z" fill="#5D5B5B"/>
<path transform="translate(810,885)" d="m0 0h2v2h-2z" fill="#5D5B5B"/>
<path transform="translate(1144,813)" d="m0 0h2v2h-2z" fill="#BBB6B7"/>
<path transform="translate(1386,721)" d="m0 0h2v2h-2z" fill="#BBB6B7"/>
<path transform="translate(1219,668)" d="m0 0h2v2h-2z" fill="#8C8889"/>
<path transform="translate(816,657)" d="m0 0h2v2h-2z" fill="#BBB6B7"/>
<path transform="translate(749,657)" d="m0 0h2v2h-2z" fill="#BBB6B7"/>
<path transform="translate(1305,515)" d="m0 0 3 1h-3z" fill="#8C8889"/>
<path transform="translate(1372,412)" d="m0 0h2v2h-2z" fill="#BBB6B7"/>
<path transform="translate(1175,1076)" d="m0 0 2 1-2 1z" fill="#BBB6B7"/>
<path transform="translate(1027,972)" d="m0 0h2l-1 2z" fill="#7C797A"/>
<path transform="translate(1389,727)" d="m0 0h2l-1 2z" fill="#7C797A"/>
<path transform="translate(1014,568)" d="m0 0 2 1-2 1z" fill="#7C797A"/>
<path transform="translate(1e3 568)" d="m0 0 2 1-2 1z" fill="#BBB6B7"/>
<path transform="translate(1008,562)" d="m0 0 2 2h-2z" fill="#7C797A"/>
<path transform="translate(1323,820)" d="m0 0" fill="#BBB6B7"/>
<path transform="translate(963,507)" d="m0 0" fill="#BBB6B7"/>
<path transform="translate(925,441)" d="m0 0" fill="#BBB6B7"/>
<path transform="translate(916,427)" d="m0 0" fill="#BBB6B7"/>
</svg>
