<?xml version="1.0" encoding="UTF-8"?>
<svg version="1.1" viewBox="0 0 2048 1536" width="1280" height="1280" xmlns="http://www.w3.org/2000/svg">
<path transform="translate(941,793)" d="m0 0h161l15 4 12 7 9 8 12 18 8 15 6 10 14 25 15 25 9 16 12 21 10 19v30l-9 19-9 15-9 16-8 14-9 16-9 15-8 14-11 19-6 10-5 2-6-9-6-11-6-10-8-14-11-19-9-15-6-12-5-7-6-12-6-10-8-14-12-20-4-6-10-10-15-7-10-3-185-1 9-19 14-24 11-19 12-20 10-18 8-14 9-15 8-11 8-8 15-8h8z" fill="#FEFEFE"/>
<path transform="translate(1382,405)" d="m0 0h2l7 13 20 35 12 20 12 21 12 20 9 17 5 8 3 6v10l3 4-1 5h-2v12l-12 24-13 22-15 25-20 36-17 28-10 18-11 19-13 23-14 24-10 17-14 25-8 13-15 26-11 20-12 19-5 10-3-1-10-17-9-16-15-25-6-11-16-28-16-27-7-14-3-10v-13l6-18 11-19 12-21 13-23 20-35 17-29 14-24 9-16 15-26 11-19 12-20 10-18 14-24 9-16 9-15 13-23 6-10z" fill="#FEFEFE"/>
<path transform="translate(782,613)" d="m0 0h3l12 22 14 24 8 13 10 19 5 8 8 13 7 13 4 6 5 9 3 4 5 15v20l-4 10-10 20-14 23-11 19-36 63-16 27-13 23-12 21-9 16-11 19-17 29-13 23-16 27-12 22-7 10-4-2-7-10-9-16-12-21-12-20-9-17-6-10-6-9-6-12-5-7-7-17-1-3v-24l8-16 6-11 13-22 9-16 11-19 6-10 12-21 13-22 8-15 12-20 11-20 12-20 11-19 24-42 20-34 13-23 10-18z" fill="#FEFEFE"/>
<path transform="translate(902,407)" d="m0 0 4 2 6 9 6 11 13 22 11 20 12 20 9 16 8 14 13 22 8 14 8 13 9 7 8 4 5 2 9 2 3 1 182 1 1 3-10 18-17 29-13 23-10 18-9 15-9 16-9 14-12 12-9 5-8 3h-177l-16-8-8-7-6-7-6-11-12-20-8-14-9-15-10-18-10-16-11-21-6-10-8-14-4-13v-15l5-15 7-13 26-46 8-13 10-18 12-20 9-16z" fill="#FEFEFE"/>
<path transform="translate(1207,1117)" d="m0 0 5 1 5 3 3-3 4 1 1 6-3 5-3 2-8-1-4 2-2-2 1-12z" fill="#FEFEFE"/>
<path transform="translate(1200,1116)" d="m0 0 5 2-2 12-3 3-4-2v-10l2-4zm0 8 1 4 1-4z" fill="#FEFEFE"/>
</svg>
