<?xml version="1.0" encoding="UTF-8"?>
<svg version="1.1" viewBox="0 0 2048 682" width="120" height="32" xmlns="http://www.w3.org/2000/svg">
<path transform="translate(329,375)" d="m0 0h123l13 4 8 5 10 9 7 11 6 11 9 16 8 14 6 10 4 6 5 10 6 10 9 16 5 11v20l-9 19-7 11-5 9-6 11-4 6-6 11-11 19-9 15-4 7-4 1-4-4-6-11-9-14-5-10-6-10-5-9-6-11-6-10-9-16-6-9-3-6-8-13-7-7-10-5-9-3-142-1-1-5 8-16 10-16 6-11 10-16 5-10 6-10 10-17 7-9 8-7 10-4z" fill="#FDFDFD"/>
<path transform="translate(670,75)" d="m0 0 4 2 7 11 5 10 4 6 5 10 10 16 6 11 9 14 8 16 5 8 3 13-1 8-2 10-8 15-5 9-8 13-9 16-6 9-8 16-9 14-5 9-16 28-5 8-4 8-5 8-5 9-9 15-10 18-10 17-5 8-15 27-7 11-5 8-4-1-9-14-5-10-4-7-6-9-6-11-9-16-8-14-6-10-4-6-5-13v-16l5-13 8-14 9-15 5-9 6-11 4-6 5-10 5-8 9-16 5-7 5-10 4-7 7-11 6-12 10-16 6-11 9-14 6-12 6-10 9-16 11-18 7-13 5-8 3-6z" fill="#FDFDFD"/>
<path transform="translate(202,237)" d="m0 0 5 1 9 16 6 11 10 16 8 15 9 14 6 12 10 16 3 9v19l-11 23-10 16-7 11-6 12-5 8-5 9-16 28-9 15-6 11-6 10-9 16-8 14-9 16-6 9-5 9-7 13-6 10-10 17-7 12-5 9-3 3-5-2-8-14-8-13-5-9-8-13-7-14-10-16-6-11-5-8-3-9v-22l8-16 12-20 6-11 8-14 9-14 6-11 7-12 11-20 9-14 7-14 10-16 18-32 6-9 5-10 6-10 24-42z" fill="#FDFDFD"/>
<path transform="translate(296,77)" d="m0 0 5 1 12 21 6 9 7 14 10 16 6 11 5 8 4 8 9 14 5 10 7 11v2h2v2l5 2 6 4 15 4 139 1 2 2-1 5-6 10-10 17-12 21-7 13-10 16-6 11-7 11-10 10-12 5h-139l-15-8-7-7-7-12-9-15-4-8-10-16-6-11-9-14-8-16-5-8-7-14-1-3v-17l5-13 6-9 6-12 5-8 5-10 9-14 7-13 9-15 6-11z" fill="#FDFDFD"/>
<path transform="translate(1687,268)" d="m0 0h266v194h-266zm53 53v88h159v-88z" fill="#FEFEFE"/>
<path transform="translate(793,268)" d="m0 0h273l-6 7-133 133 140 1v53h-273l6-7 133-133-140-1z" fill="#FEFEFE"/>
<path transform="translate(1086,268)" d="m0 0h80l69 69 7-6 63-63h80l-6 7-116 116-1 71h-53l-1-71-122-122z" fill="#FEFEFE"/>
<path transform="translate(1403,268)" d="m0 0h265l-6 7-46 46h-160v141h-53z" fill="#FEFEFE"/>
<path transform="translate(1518,338)" d="m0 0h151v124h-53l-1-70h-148v-3z" fill="#FEFEFE"/>
<path transform="translate(329,375)" d="m0 0h123l13 4 4 3h-5l-8-3h-130l-9 2-9 6-3 1-2 4-3 3-2-1 9-10 7-4 7-3z" fill="#D3D3D3"/>
<path transform="translate(241,495)" d="m0 0 143 1 13 4 9 6 5 5v2h2l4 7 3 5-1 3-5-7-4-7-7-7-10-5-9-3-142-1z" fill="#D3D3D3"/>
<path transform="translate(522,330)" d="m0 0h2l-2 5-5 10-1 7v8l2 10 5 10 1 5h2l7 12 6 11 7 11 2 4v3h2l4 8 7 11 2 6-3-1-6-11-3-4-6-11-9-16-8-14-6-10-4-6-5-13v-16l5-13z" fill="#D3D3D3"/>
<path transform="translate(587,217)" d="m0 0h2l-2 5-9 16-5 8-6 11-2 4h-2l-1 4-6 11-8 14-6 9-3 7h-2l-1 4-2 3-2-1 6-11 5-8 5-9 7-13 5-8 9-16 5-7 5-10 4-7z" fill="#D3D3D3"/>
<path transform="translate(528,628)" d="m0 0h8l9 1 3 2-1 4-2 3h-16l-3-1v-7z" fill="#D5D5D5"/>
<path transform="translate(240,217)" d="m0 0h2v3h2l6 11 10 16 7 14 6 9v3h2l2 4v3h2l2 4-1 4-12-20-7-12-7-11-8-16-5-8z" fill="#D3D3D3"/>
<path transform="translate(435,554)" d="m0 0 5 5 5 9 3 6v2h2l6 12 8 13 6 10 6 11-1 3-11-17-5-10-6-10-5-9-6-11-6-10z" fill="#D3D3D3"/>
<path transform="translate(202,237)" d="m0 0 5 1 9 16 6 11 5 8-3 1-2-4v-3h-2l-4-8-5-7-5-10-1-3h-2v2h-2l-1 4-6 11-2 4h-2v3h-2l2-6 9-16z" fill="#D3D3D3"/>
<path transform="translate(179,517)" d="m0 0h2l-2 6-18 32-6 9-5 9-1-4 9-15 6-11 7-11 4-8z" fill="#D3D3D3"/>
<path transform="translate(693,112)" d="m0 0 4 5 9 15 9 16 5 7 5 11v2h-2l-6-11-12-21-6-10-6-11z" fill="#D3D3D3"/>
<path transform="translate(663,327)" d="m0 0 2 1-6 11-5 8-4 8-5 8-5 9-6 10h-2l1-4 6-10 4-7 2-4h2l1-5 6-10 4-8h2l1-4z" fill="#D3D3D3"/>
<path transform="translate(266,357)" d="m0 0h2v9l-11 23-10 16-6 9-1-2 5-8 7-14 6-9 6-12z" fill="#D3D3D3"/>
<path transform="translate(670,75)" d="m0 0 4 2 7 11 5 10 4 6 3 8h-2l-8-14-8-13-2-4v-3h-3l-3 6h-2l-1 4-2-1 6-11z" fill="#D3D3D3"/>
<path transform="translate(298,77)" d="m0 0 4 2 7 13 4 7 6 9 5 11-2 1-12-21-5-9-5-8z" fill="#D3D3D3"/>
<path transform="translate(695,271)" d="m0 0 2 1-8 16-9 14-5 9-2-2 6-9 7-14 6-9z" fill="#D3D3D3"/>
<path transform="translate(728,215)" d="m0 0 1 3-7 13-7 11-8 13-1-3 7-12 6-11 6-10z" fill="#D3D3D3"/>
<path transform="translate(475,386)" d="m0 0 7 6 8 12 12 22v2h-2l-7-12-5-10-6-9-7-9z" fill="#D3D3D3"/>
<path transform="translate(493,297)" d="m0 0h2l-2 6-10 17-11 11-9 3v-2l9-5h2v-2l4-4h2l2-5 4-7 6-9z" fill="#D3D3D3"/>
<path transform="translate(524,567)" d="m0 0 2 1-5 10-4 6-6 11-8 13-1-4h2l1-4 8-15 5-7z" fill="#D3D3D3"/>
<path transform="translate(89,433)" d="m0 0 1 3-2 4h-2l-2 7-8 12-6 11-2 3-2-1 7-13 8-14 7-11z" fill="#D3D3D3"/>
<path transform="translate(266,126)" d="m0 0h2l-2 5-9 16-5 8-6 11-2-1 6-12 5-8 5-10z" fill="#D3D3D3"/>
<path transform="translate(606,425)" d="m0 0 2 1-5 10-6 10-6 11-5 7h-2v-2h2l2-7 6-9 6-11 4-7h2z" fill="#D3D3D3"/>
<path transform="translate(146,574)" d="m0 0h2l-3 9-7 11-9 16-4 4 1-4 7-14h2l1-4 4-7z" fill="#D3D3D3"/>
<path transform="translate(65,474)" d="m0 0 1 3-7 12-1 3h-2l-1 4-3 5-4 13h-1v-8l8-16z" fill="#D3D3D3"/>
<path transform="translate(178,279)" d="m0 0 1 3-5 8-6 11-5 8-5 9h-3l6-11 5-8 5-9 6-10z" fill="#D3D3D3"/>
<path transform="translate(324,122)" d="m0 0 3 1 11 19 7 11 3 8h-2l-4-7-7-11-6-11z" fill="#D3D3D3"/>
<path transform="translate(253,320)" d="m0 0 4 5 8 13 3 9v7h-2l-2-11-7-13-4-6z" fill="#D3D3D3"/>
<path transform="translate(511,266)" d="m0 0 2 1-8 16-9 14-1-4 6-9 6-11z" fill="#D3D3D3"/>
<path transform="translate(563,452)" d="m0 0 4 4 8 14 1 4 5-5 2-4 1 3-5 8-4-1-9-14z" fill="#D3D3D3"/>
<path transform="translate(139,346)" d="m0 0 1 3-6 11-9 15h-3l8-15z" fill="#D3D3D3"/>
<path transform="translate(258,463)" d="m0 0 1 3-6 11-9 15-2 1 2-6 7-13z" fill="#D3D3D3"/>
<path transform="translate(121,377)" d="m0 0h2l-2 6-6 9-1 3h-2l-1 4-4 7-2-1 9-17z" fill="#D3D3D3"/>
<path transform="translate(605,186)" d="m0 0 1 3-6 11-9 15-2-1 7-14z" fill="#D3D3D3"/>
<path transform="translate(73,574)" d="m0 0h2l6 11 5 8v3h2l2 4-1 4-9-15-7-13z" fill="#D3D3D3"/>
<path transform="translate(541,537)" d="m0 0h2l-2 6-9 15-5 9-1-4 2-4h2l1-4 6-11z" fill="#D3D3D3"/>
<path transform="translate(291,406)" d="m0 0 1 4-7 11-6 11-2 4h-2l3-9 5-7 6-11z" fill="#D3D3D3"/>
<path transform="translate(372,202)" d="m0 0h2v2l5 2 6 4 14 4v2l-9-1-12-6-6-5z" fill="#D3D3D3"/>
<path transform="translate(500,608)" d="m0 0h2l-2 6-9 15-4 7-2-1 6-11 5-9z" fill="#D3D3D3"/>
<path transform="translate(229,431)" d="m0 0 2 1-5 10-6 10-5 8-1-3 8-14z" fill="#D3D3D3"/>
<path transform="translate(212,461)" d="m0 0 2 1-6 11-8 13-2-2 6-9 5-10z" fill="#D3D3D3"/>
<path transform="translate(511,444)" d="m0 0 5 5 5 9 5 10h-3l-6-10-6-12z" fill="#D3D3D3"/>
<path transform="translate(622,398)" d="m0 0 2 1-6 11-8 13h-2l2-5 8-13z" fill="#D3D3D3"/>
<path transform="translate(354,172)" d="m0 0 4 4 7 13 5 8h-3l-4-6-6-11-3-4z" fill="#D3D3D3"/>
<path transform="translate(273,437)" d="m0 0 2 2-5 9h-2l-1 4-5 10-3 1 2-6 7-11z" fill="#D3D3D3"/>
<path transform="translate(653,104)" d="m0 0 1 3-4 7h-2l-1 4-4 8h-2v3h-2l2-6 10-17z" fill="#D3D3D3"/>
<path transform="translate(284,95)" d="m0 0 1 3-7 12-6 11h-2l2-6 8-14z" fill="#D3D3D3"/>
<path transform="translate(281,288)" d="m0 0h2l7 12v3h2v3h2l2 7-5-5-5-9-5-10z" fill="#D3D3D3"/>
<path transform="translate(123,615)" d="m0 0 2 1-8 15-5 6-1-2 7-12z" fill="#D3D3D3"/>
<path transform="translate(535,225)" d="m0 0 2 1-7 13-7 11-1-3 5-8 1-3h2l1-4z" fill="#D3D3D3"/>
<path transform="translate(104,407)" d="m0 0 1 3-2 4h-2l-1 4-1 3h-2l-1 4-4 7-2-1 6-11 7-12z" fill="#D3D3D3"/>
<path transform="translate(238,295)" d="m0 0 5 5 5 9 4 8-1 2-1-3h-2l-4-8v-3h-2l-4-8z" fill="#D3D3D3"/>
<path transform="translate(296,314)" d="m0 0h2l5 7v2l5 2 2 4 4 1-1 2-8-5-8-9z" fill="#D3D3D3"/>
<path transform="translate(725,168)" d="m0 0 4 4 5 10v5h-2l-4-11-3-5z" fill="#D3D3D3"/>
<path transform="translate(233,197)" d="m0 0h2l1 3v8h2l2 7-3-1-4-10z" fill="#D3D3D3"/>
<path transform="translate(226,275)" d="m0 0 3 1 8 15v2h-2l-6-11-3-5z" fill="#D3D3D3"/>
<path transform="translate(294,78)" d="m0 0 2 1-6 11-3 4-2-1 6-11z" fill="#D3D3D3"/>
<path transform="translate(99,619)" d="m0 0h2l6 11 3 6-3-1-8-14z" fill="#D3D3D3"/>
<path transform="translate(526,469)" d="m0 0 4 5 5 10-3-1-2-3v-3h-2l-3-5z" fill="#D3D3D3"/>
<path transform="translate(502,428)" d="m0 0 4 4 5 11-3-1-6-10z" fill="#D3D3D3"/>
<path transform="translate(614,170)" d="m0 0 1 4-7 11-2-1 6-11z" fill="#D3D3D3"/>
<path transform="translate(243,167)" d="m0 0 1 3-5 8-2 4-2-1 6-12z" fill="#D3D3D3"/>
<path transform="translate(49,531)" d="m0 0 3 3 5 10-1 3-6-10z" fill="#D3D3D3"/>
<path transform="translate(704,256)" d="m0 0 2 1-6 11-3 2 1-4 1-3h2l1-4z" fill="#D3D3D3"/>
<path transform="translate(535,485)" d="m0 0 4 4 4 8v2h-2l-6-11z" fill="#D3D3D3"/>
<path transform="translate(629,145)" d="m0 0 1 3-2 4h-2l-1 4-1 3h-2l1-5z" fill="#D3D3D3"/>
<path transform="translate(90,604)" d="m0 0h2l7 12-1 3-7-11z" fill="#D3D3D3"/>
<path transform="translate(188,502)" d="m0 0 2 1-7 13-2 1 1-4z" fill="#D3D3D3"/>
<path transform="translate(238,416)" d="m0 0 1 3-6 10-2 1 1-4 1-3h2l1-4z" fill="#D3D3D3"/>
<path transform="translate(630,384)" d="m0 0 2 1-6 11-3 1 2-6z" fill="#D3D3D3"/>
<path transform="translate(154,320)" d="m0 0 1 4-5 7-1 3h-2l2-6z" fill="#D3D3D3"/>
<path transform="translate(661,89)" d="m0 0h2l-2 5-5 9-2-1 6-12z" fill="#D3D3D3"/>
<path transform="translate(426,539)" d="m0 0h2l7 12v2h-2z" fill="#D3D3D3"/>
<path transform="translate(531,314)" d="m0 0 2 2-8 12-1-2 6-11z" fill="#D3D3D3"/>
<path transform="translate(58,548)" d="m0 0 4 4 4 7-1 3-6-10z" fill="#D3D3D3"/>
<path transform="translate(672,312)" d="m0 0 1 2-6 11-2 1 1-5z" fill="#D3D3D3"/>
<path transform="translate(543,499)" d="m0 0 3 4 2 5v4h-2l-3-9z" fill="#D3D3D3"/>
<path transform="translate(197,487)" d="m0 0 1 2-5 10-3 2 1-4 3-6h2z" fill="#D3D3D3"/>
<path transform="translate(519,252)" d="m0 0h2l-2 6-5 8-1-3z" fill="#D3D3D3"/>
</svg>
